<svg width="34" height="34" fill="none" xmlns="http://www.w3.org/2000/svg"><path d="M34 17c0 9.389-7.611 17-17 17S0 26.389 0 17 7.611 0 17 0s17 7.611 17 17Z" fill="#4A61ED"/><path d="M28 17c0 6.075-4.925 11-11 11S6 23.075 6 17 10.925 6 17 6s11 4.925 11 11Z" fill="#fff"/><path fill-rule="evenodd" clip-rule="evenodd" d="M11 21.9c0 .608.537 1.1 1.2 1.1.663 0 1.2-.492 1.2-1.1v-5.5c0-.607-.537-1.1-1.2-1.1-.663 0-1.2.492-1.2 1.1v5.5Zm4.8 0c0 .608.537 1.1 1.2 1.1.663 0 1.2-.492 1.2-1.1v-8.8c0-.607-.537-1.1-1.2-1.1-.663 0-1.2.492-1.2 1.1v8.8Zm4.8 0c0 .608.537 1.1 1.2 1.1.663 0 1.2-.492 1.2-1.1v-2.2c0-.607-.537-1.1-1.2-1.1-.663 0-1.2.492-1.2 1.1v2.2Z" fill="#4A61ED"/></svg>